<svg xmlns="http://www.w3.org/2000/svg" xmlns:xlink="http://www.w3.org/1999/xlink" width="48" zoomAndPan="magnify" viewBox="0 0 36 36.000001" height="48" preserveAspectRatio="xMidYMid meet" version="1.0"><defs><g/><clipPath id="efef30ff8c"><path d="M 0.488281 0 L 35.511719 0 L 35.511719 35.027344 L 0.488281 35.027344 Z M 0.488281 0 " clip-rule="nonzero"/></clipPath></defs><g clip-path="url(#efef30ff8c)"><path fill="#ffffff" d="M 0.488281 0 L 35.511719 0 L 35.511719 35.027344 L 0.488281 35.027344 Z M 0.488281 0 " fill-opacity="1" fill-rule="nonzero"/><path fill="#ffffff" d="M 0.488281 0 L 35.511719 0 L 35.511719 35.027344 L 0.488281 35.027344 Z M 0.488281 0 " fill-opacity="1" fill-rule="nonzero"/></g><g fill="#2b2b2b" fill-opacity="0.4"><g transform="translate(1.942342, 27.189979)"><g><path d="M 8.5625 -0.296875 C 9.4375 -0.296875 10.210938 -0.53125 10.890625 -1 C 11.566406 -1.476562 11.90625 -2.191406 11.90625 -3.140625 C 11.90625 -4.097656 11.539062 -4.832031 10.8125 -5.34375 C 10.082031 -5.851562 9.046875 -6.296875 7.703125 -6.671875 C 6.359375 -7.054688 5.382812 -7.390625 4.78125 -7.671875 C 4.175781 -7.953125 3.601562 -8.316406 3.0625 -8.765625 C 1.96875 -9.679688 1.421875 -11.097656 1.421875 -13.015625 C 1.421875 -14.578125 1.976562 -15.921875 3.09375 -17.046875 C 4.207031 -18.171875 5.734375 -18.734375 7.671875 -18.734375 C 8.597656 -18.734375 9.566406 -18.59375 10.578125 -18.3125 C 11.585938 -18.039062 12.210938 -17.90625 12.453125 -17.90625 C 12.703125 -17.90625 12.925781 -18.082031 13.125 -18.4375 L 13.40625 -18.4375 L 13.59375 -13.125 L 13.171875 -13.125 C 12.328125 -14.644531 11.441406 -15.863281 10.515625 -16.78125 C 9.597656 -17.707031 8.597656 -18.171875 7.515625 -18.171875 C 6.441406 -18.171875 5.601562 -17.921875 5 -17.421875 C 4.40625 -16.921875 4.109375 -16.253906 4.109375 -15.421875 C 4.109375 -14.585938 4.460938 -13.945312 5.171875 -13.5 C 5.890625 -13.050781 6.765625 -12.6875 7.796875 -12.40625 C 8.835938 -12.125 9.519531 -11.929688 9.84375 -11.828125 C 10.164062 -11.722656 10.566406 -11.578125 11.046875 -11.390625 C 11.535156 -11.203125 11.929688 -11.007812 12.234375 -10.8125 C 12.546875 -10.613281 12.867188 -10.359375 13.203125 -10.046875 C 13.546875 -9.742188 13.816406 -9.40625 14.015625 -9.03125 C 14.484375 -8.1875 14.71875 -7.1875 14.71875 -6.03125 C 14.71875 -4.132812 14.125 -2.609375 12.9375 -1.453125 C 11.757812 -0.304688 10.203125 0.265625 8.265625 0.265625 C 7.265625 0.265625 6.117188 0.132812 4.828125 -0.125 C 3.535156 -0.394531 2.820312 -0.53125 2.6875 -0.53125 C 2.4375 -0.53125 2.195312 -0.265625 1.96875 0.265625 L 1.609375 0.265625 L 1.34375 -6 L 1.796875 -6 C 2.566406 -4.476562 3.550781 -3.144531 4.75 -2 C 5.957031 -0.863281 7.226562 -0.296875 8.5625 -0.296875 Z M 8.5625 -0.296875 "/></g></g></g><g fill="#2b2b2b" fill-opacity="0.4"><g transform="translate(16.689041, 27.189979)"><g><path d="M 0.546875 -18.4375 L 8.4375 -18.4375 C 10.875 -18.4375 12.703125 -18.109375 13.921875 -17.453125 C 15.140625 -16.796875 15.75 -15.6875 15.75 -14.125 C 15.75 -11.71875 14.300781 -10.273438 11.40625 -9.796875 L 11.40625 -9.75 C 14.914062 -9.3125 16.671875 -7.78125 16.671875 -5.15625 C 16.671875 -3.25 15.953125 -1.910156 14.515625 -1.140625 C 13.078125 -0.378906 11.003906 0 8.296875 0 L 0.546875 0 L 0.546875 -0.5 L 2.265625 -0.5 L 2.265625 -17.9375 L 0.546875 -17.9375 Z M 7.40625 -9.328125 L 7.40625 -0.5 L 8.640625 -0.5 C 9.609375 -0.5 10.285156 -0.832031 10.671875 -1.5 C 11.054688 -2.164062 11.25 -3.148438 11.25 -4.453125 L 11.25 -5.84375 C 11.25 -7.007812 11.007812 -7.878906 10.53125 -8.453125 C 10.0625 -9.035156 9.222656 -9.328125 8.015625 -9.328125 Z M 7.40625 -17.9375 L 7.40625 -9.828125 L 8.09375 -9.828125 C 9 -9.828125 9.628906 -10.101562 9.984375 -10.65625 C 10.347656 -11.207031 10.53125 -12.054688 10.53125 -13.203125 L 10.53125 -14.4375 C 10.53125 -15.738281 10.375 -16.644531 10.0625 -17.15625 C 9.75 -17.675781 9.144531 -17.9375 8.25 -17.9375 Z M 7.40625 -17.9375 "/></g></g></g><g fill="#ff6c00" fill-opacity="1"><g transform="translate(1.942342, 27.189979)"><g><path d="M 8.5625 -0.296875 C 9.4375 -0.296875 10.210938 -0.53125 10.890625 -1 C 11.566406 -1.476562 11.90625 -2.191406 11.90625 -3.140625 C 11.90625 -4.097656 11.539062 -4.832031 10.8125 -5.34375 C 10.082031 -5.851562 9.046875 -6.296875 7.703125 -6.671875 C 6.359375 -7.054688 5.382812 -7.390625 4.78125 -7.671875 C 4.175781 -7.953125 3.601562 -8.316406 3.0625 -8.765625 C 1.96875 -9.679688 1.421875 -11.097656 1.421875 -13.015625 C 1.421875 -14.578125 1.976562 -15.921875 3.09375 -17.046875 C 4.207031 -18.171875 5.734375 -18.734375 7.671875 -18.734375 C 8.597656 -18.734375 9.566406 -18.59375 10.578125 -18.3125 C 11.585938 -18.039062 12.210938 -17.90625 12.453125 -17.90625 C 12.703125 -17.90625 12.925781 -18.082031 13.125 -18.4375 L 13.40625 -18.4375 L 13.59375 -13.125 L 13.171875 -13.125 C 12.328125 -14.644531 11.441406 -15.863281 10.515625 -16.78125 C 9.597656 -17.707031 8.597656 -18.171875 7.515625 -18.171875 C 6.441406 -18.171875 5.601562 -17.921875 5 -17.421875 C 4.40625 -16.921875 4.109375 -16.253906 4.109375 -15.421875 C 4.109375 -14.585938 4.460938 -13.945312 5.171875 -13.5 C 5.890625 -13.050781 6.765625 -12.6875 7.796875 -12.40625 C 8.835938 -12.125 9.519531 -11.929688 9.84375 -11.828125 C 10.164062 -11.722656 10.566406 -11.578125 11.046875 -11.390625 C 11.535156 -11.203125 11.929688 -11.007812 12.234375 -10.8125 C 12.546875 -10.613281 12.867188 -10.359375 13.203125 -10.046875 C 13.546875 -9.742188 13.816406 -9.40625 14.015625 -9.03125 C 14.484375 -8.1875 14.71875 -7.1875 14.71875 -6.03125 C 14.71875 -4.132812 14.125 -2.609375 12.9375 -1.453125 C 11.757812 -0.304688 10.203125 0.265625 8.265625 0.265625 C 7.265625 0.265625 6.117188 0.132812 4.828125 -0.125 C 3.535156 -0.394531 2.820312 -0.53125 2.6875 -0.53125 C 2.4375 -0.53125 2.195312 -0.265625 1.96875 0.265625 L 1.609375 0.265625 L 1.34375 -6 L 1.796875 -6 C 2.566406 -4.476562 3.550781 -3.144531 4.75 -2 C 5.957031 -0.863281 7.226562 -0.296875 8.5625 -0.296875 Z M 8.5625 -0.296875 "/></g></g></g><g fill="#ff6c00" fill-opacity="1"><g transform="translate(16.689041, 27.189979)"><g><path d="M 0.546875 -18.4375 L 8.4375 -18.4375 C 10.875 -18.4375 12.703125 -18.109375 13.921875 -17.453125 C 15.140625 -16.796875 15.75 -15.6875 15.75 -14.125 C 15.75 -11.71875 14.300781 -10.273438 11.40625 -9.796875 L 11.40625 -9.75 C 14.914062 -9.3125 16.671875 -7.78125 16.671875 -5.15625 C 16.671875 -3.25 15.953125 -1.910156 14.515625 -1.140625 C 13.078125 -0.378906 11.003906 0 8.296875 0 L 0.546875 0 L 0.546875 -0.5 L 2.265625 -0.5 L 2.265625 -17.9375 L 0.546875 -17.9375 Z M 7.40625 -9.328125 L 7.40625 -0.5 L 8.640625 -0.5 C 9.609375 -0.5 10.285156 -0.832031 10.671875 -1.5 C 11.054688 -2.164062 11.25 -3.148438 11.25 -4.453125 L 11.25 -5.84375 C 11.25 -7.007812 11.007812 -7.878906 10.53125 -8.453125 C 10.0625 -9.035156 9.222656 -9.328125 8.015625 -9.328125 Z M 7.40625 -17.9375 L 7.40625 -9.828125 L 8.09375 -9.828125 C 9 -9.828125 9.628906 -10.101562 9.984375 -10.65625 C 10.347656 -11.207031 10.53125 -12.054688 10.53125 -13.203125 L 10.53125 -14.4375 C 10.53125 -15.738281 10.375 -16.644531 10.0625 -17.15625 C 9.75 -17.675781 9.144531 -17.9375 8.25 -17.9375 Z M 7.40625 -17.9375 "/></g></g></g></svg>